<?xml version="1.0" encoding="UTF-8" standalone="no"?>
<!-- Created with Inkscape (http://www.inkscape.org/) -->

<svg
   width="335"
   height="273.67859"
   viewBox="0 0 88.635415 72.410793"
   version="1.1"
   id="svg1"
   sodipodi:docname="mail_icon_shape.svg"
   inkscape:version="1.4.2 (f4327f4, 2025-05-13)"
   xmlns:inkscape="http://www.inkscape.org/namespaces/inkscape"
   xmlns:sodipodi="http://sodipodi.sourceforge.net/DTD/sodipodi-0.dtd"
   xmlns="http://www.w3.org/2000/svg"
   xmlns:svg="http://www.w3.org/2000/svg">
  <sodipodi:namedview
     id="namedview1"
     pagecolor="#ffffff"
     bordercolor="#000000"
     borderopacity="0.25"
     inkscape:showpageshadow="2"
     inkscape:pageopacity="0.0"
     inkscape:pagecheckerboard="0"
     inkscape:deskcolor="#d1d1d1"
     inkscape:document-units="px"
     inkscape:zoom="0.69753789"
     inkscape:cx="-101.06978"
     inkscape:cy="132.60928"
     inkscape:window-width="1920"
     inkscape:window-height="1001"
     inkscape:window-x="-9"
     inkscape:window-y="-9"
     inkscape:window-maximized="1"
     inkscape:current-layer="layer1" />
  <defs
     id="defs1" />
  <g
     inkscape:label="Layer 1"
     inkscape:groupmode="layer"
     id="layer1"
     transform="translate(-23.869952,-54.258203)">
    <g
       id="g3"
       transform="rotate(18.272865,67.29306,90.465517)">
      <path
         style="fill:#c1c1c1;fill-opacity:1;stroke:none;stroke-width:2.64583;stroke-linecap:round;stroke-linejoin:round;stroke-dasharray:7.9375, 7.9375;stroke-dashoffset:0;stroke-opacity:1"
         d="m 29.586205,67.858422 37.70689,26.36207 37.706885,-26.36207 -3.88908,-3.754974 H 34.849136 Z"
         id="path3"
         sodipodi:nodetypes="cccccc" />
      <path
         style="baseline-shift:baseline;display:inline;overflow:visible;opacity:1;vector-effect:none;stroke-linecap:round;stroke-linejoin:round;stroke-dasharray:7.9375, 7.9375;enable-background:accumulate;stop-color:#000000;stop-opacity:1"
         d="m 37.095703,62.78125 c -0.743009,-1.9e-4 -1.485435,0.0899 -2.208984,0.275391 -1.290501,0.329564 -2.494744,0.95215 -3.509766,1.816406 a 1.322915,1.322915 0 0 0 -0.150391,1.865234 1.322915,1.322915 0 0 0 1.865235,0.150391 c 0.703268,-0.598808 1.555165,-1.038759 2.451172,-1.267578 0.50409,-0.129227 1.028558,-0.195447 1.552734,-0.195313 h 7.9375 a 1.322915,1.322915 0 0 0 1.324219,-1.322265 1.322915,1.322915 0 0 0 -1.324219,-1.322266 z m 15.875,0 a 1.322915,1.322915 0 0 0 -1.322266,1.322266 1.322915,1.322915 0 0 0 1.322266,1.322265 h 7.9375 a 1.322915,1.322915 0 0 0 1.324219,-1.322265 1.322915,1.322915 0 0 0 -1.324219,-1.322266 z m 15.875,0 a 1.322915,1.322915 0 0 0 -1.322266,1.322266 1.322915,1.322915 0 0 0 1.322266,1.322265 h 7.9375 a 1.322915,1.322915 0 0 0 1.324219,-1.322265 1.322915,1.322915 0 0 0 -1.324219,-1.322266 z m 15.875,0 a 1.322915,1.322915 0 0 0 -1.322266,1.322266 1.322915,1.322915 0 0 0 1.322266,1.322265 h 7.9375 A 1.322915,1.322915 0 0 0 93.982422,64.103516 1.322915,1.322915 0 0 0 92.658203,62.78125 Z M 100.02539,63.5 a 1.322915,1.322915 0 0 0 -0.728515,0.703125 1.322915,1.322915 0 0 0 0.685547,1.742187 c 0.833838,0.362753 1.591668,0.922226 2.189458,1.613282 a 1.3230472,1.3230472 0 0 0 0.002,0.002 c 0.61997,0.714815 1.07518,1.582729 1.30859,2.498047 a 1.3230472,1.3230472 0 0 0 0,0.002 c 0.0777,0.303716 0.1334,0.612844 0.16406,0.923828 a 1.322915,1.322915 0 0 0 1.44532,1.1875 1.322915,1.322915 0 0 0 1.1875,-1.447266 c -0.0439,-0.445277 -0.12184,-0.885857 -0.23242,-1.318359 v -0.002 c -0.33679,-1.319537 -0.98228,-2.548499 -1.87305,-3.576172 l -0.002,-0.002 c -0.85672,-0.98976 -1.92986,-1.784408 -3.13477,-2.308594 A 1.322915,1.322915 0 0 0 100.02539,63.5 Z m -70.439453,8.208984 a 1.322915,1.322915 0 0 0 -1.322265,1.324219 v 7.9375 a 1.322915,1.322915 0 0 0 1.322265,1.322266 1.322915,1.322915 0 0 0 1.322266,-1.322266 v -7.9375 A 1.322915,1.322915 0 0 0 29.585937,71.708984 Z M 105,77.46875 a 1.322915,1.322915 0 0 0 -1.32227,1.322266 v 7.9375 A 1.322915,1.322915 0 0 0 105,88.050781 a 1.322915,1.322915 0 0 0 1.32227,-1.322265 v -7.9375 A 1.322915,1.322915 0 0 0 105,77.46875 Z M 29.585937,87.583984 a 1.322915,1.322915 0 0 0 -1.322265,1.324219 v 7.9375 a 1.322915,1.322915 0 0 0 1.322265,1.322266 1.322915,1.322915 0 0 0 1.322266,-1.322266 v -7.9375 A 1.322915,1.322915 0 0 0 29.585937,87.583984 Z M 105,93.34375 a 1.322915,1.322915 0 0 0 -1.32227,1.322266 v 7.937504 a 1.322915,1.322915 0 0 0 1.32227,1.32226 1.322915,1.322915 0 0 0 1.32227,-1.32226 V 94.666016 A 1.322915,1.322915 0 0 0 105,93.34375 Z m -75.414063,10.11523 a 1.322915,1.322915 0 0 0 -1.322265,1.32422 v 4.53516 c -0.0013,1.33356 0.296414,2.66102 0.884765,3.86719 a 1.322915,1.322915 0 0 0 1.769532,0.60937 1.322915,1.322915 0 0 0 0.609375,-1.76758 c -0.406278,-0.83289 -0.620284,-1.77482 -0.619141,-2.70898 v -4.53516 a 1.322915,1.322915 0 0 0 -1.322266,-1.32422 z m 75.523443,5.76954 a 1.322915,1.322915 0 0 0 -1.51368,1.09961 c -0.14669,0.91997 -0.51513,1.81477 -1.05664,2.57617 a 1.3230472,1.3230472 0 0 0 0,0.002 c -0.54223,0.76471 -1.2699,1.40785 -2.09375,1.85352 -0.26366,0.14287 -0.537178,0.26653 -0.818357,0.36914 a 1.322915,1.322915 0 0 0 -0.791016,1.69726 1.322915,1.322915 0 0 0 1.697263,0.78906 c 0.40347,-0.14723 0.79477,-0.32495 1.17188,-0.52929 v 0.002 c 1.18513,-0.64111 2.21103,-1.55221 2.99023,-2.65039 0.77903,-1.09536 1.30154,-2.36296 1.51367,-3.69336 a 1.322915,1.322915 0 0 0 -1.0996,-1.51562 z m -68.382818,6.26562 a 1.322915,1.322915 0 0 0 -1.412109,1.22461 1.322915,1.322915 0 0 0 1.224609,1.41406 c 0.200901,0.0143 0.3845,0.0168 0.550782,0.0176 a 1.3230472,1.3230472 0 0 0 0.0059,0 h 7.474609 a 1.322915,1.322915 0 0 0 1.322266,-1.32226 1.322915,1.322915 0 0 0 -1.322266,-1.32422 h -7.46875 -0.0059 c -0.139811,-7.2e-4 -0.263544,-0.002 -0.369141,-0.01 z m 15.78125,0.01 a 1.322915,1.322915 0 0 0 -1.322265,1.32422 1.322915,1.322915 0 0 0 1.322265,1.32226 h 7.9375 a 1.322915,1.322915 0 0 0 1.322266,-1.32226 1.322915,1.322915 0 0 0 -1.322266,-1.32422 z m 15.875,0 a 1.322915,1.322915 0 0 0 -1.322265,1.32422 1.322915,1.322915 0 0 0 1.322265,1.32226 h 7.9375 a 1.322915,1.322915 0 0 0 1.322266,-1.32226 1.322915,1.322915 0 0 0 -1.322266,-1.32422 z m 15.875,0 a 1.322915,1.322915 0 0 0 -1.322265,1.32422 1.322915,1.322915 0 0 0 1.322265,1.32226 h 7.9375 a 1.322915,1.322915 0 0 0 1.322266,-1.32226 1.322915,1.322915 0 0 0 -1.322266,-1.32422 z"
         id="rect1" />
      <path
         style="baseline-shift:baseline;display:inline;overflow:visible;opacity:1;vector-effect:none;stroke-linecap:round;stroke-linejoin:round;stroke-dasharray:7.93798, 7.93798;enable-background:accumulate;stop-color:#000000;stop-opacity:1"
         d="m 29.355469,66.556641 a 1.3229949,1.3229949 0 0 0 -0.853516,0.542968 1.3229949,1.3229949 0 0 0 0.326172,1.84375 l 6.505859,4.546875 a 1.3229949,1.3229949 0 0 0 1.841797,-0.326172 1.3229949,1.3229949 0 0 0 -0.326172,-1.841796 L 30.34375,66.773437 a 1.3229949,1.3229949 0 0 0 -0.988281,-0.216796 z m 14,9.314453 a 1.3229949,1.3229949 0 0 0 -1.841797,0.326172 1.3229949,1.3229949 0 0 0 0.326172,1.841796 l 6.505859,4.548829 A 1.3229949,1.3229949 0 0 0 50.1875,82.261719 1.3229949,1.3229949 0 0 0 49.861328,80.419922 Z M 55.378906,84.75 a 1.3229949,1.3229949 0 0 0 -0.853515,0.542969 1.3229949,1.3229949 0 0 0 0.326171,1.84375 l 6.50586,4.546875 a 1.3229949,1.3229949 0 0 0 1.841797,-0.326172 1.3229949,1.3229949 0 0 0 -0.326172,-1.841797 l -6.50586,-4.548828 A 1.3229949,1.3229949 0 0 0 55.378906,84.75 Z"
         id="path1" />
      <path
         style="baseline-shift:baseline;display:inline;overflow:visible;opacity:1;vector-effect:none;stroke-linecap:round;stroke-linejoin:round;stroke-dasharray:7.93751, 7.93751;enable-background:accumulate;stop-color:#000000;stop-opacity:1"
         d="m 104.24219,66.773437 -6.505862,4.548829 a 1.322915,1.322915 0 0 0 -0.326172,1.841796 1.322915,1.322915 0 0 0 1.841797,0.326172 l 6.505857,-4.546875 a 1.322915,1.322915 0 0 0 0.32617,-1.84375 1.322915,1.322915 0 0 0 -1.84179,-0.326172 z m -13.011721,9.097657 -6.503907,4.546875 a 1.322915,1.322915 0 0 0 -0.326171,1.841797 1.322915,1.322915 0 0 0 1.841796,0.326171 l 6.50586,-4.546875 a 1.322915,1.322915 0 0 0 0.326172,-1.841796 1.322915,1.322915 0 0 0 -1.84375,-0.326172 z m -13.009766,9.095703 -6.505859,4.546875 a 1.322915,1.322915 0 0 0 -0.326172,1.84375 1.322915,1.322915 0 0 0 1.841797,0.326172 l 6.505859,-4.548828 A 1.322915,1.322915 0 0 0 80.0625,85.292969 1.322915,1.322915 0 0 0 78.220703,84.966797 Z"
         id="path2" />
    </g>
  </g>
</svg>
