<?xml version="1.0" encoding="UTF-8" standalone="no"?>
<!-- Created with Inkscape (http://www.inkscape.org/) -->

<svg
   width="335"
   height="335"
   viewBox="0 0 88.635415 88.635416"
   version="1.1"
   id="svg1"
   sodipodi:docname="mastodon_icon_shape.svg"
   inkscape:version="1.4.2 (f4327f4, 2025-05-13)"
   xml:space="preserve"
   xmlns:inkscape="http://www.inkscape.org/namespaces/inkscape"
   xmlns:sodipodi="http://sodipodi.sourceforge.net/DTD/sodipodi-0.dtd"
   xmlns="http://www.w3.org/2000/svg"
   xmlns:svg="http://www.w3.org/2000/svg"><sodipodi:namedview
     id="namedview1"
     pagecolor="#ffffff"
     bordercolor="#000000"
     borderopacity="0.25"
     inkscape:showpageshadow="2"
     inkscape:pageopacity="0.0"
     inkscape:pagecheckerboard="0"
     inkscape:deskcolor="#d1d1d1"
     inkscape:document-units="px"
     inkscape:zoom="0.98646755"
     inkscape:cx="-64.371099"
     inkscape:cy="344.15729"
     inkscape:window-width="1920"
     inkscape:window-height="1001"
     inkscape:window-x="-9"
     inkscape:window-y="-9"
     inkscape:window-maximized="1"
     inkscape:current-layer="layer1" /><defs
     id="defs1" /><g
     inkscape:label="Layer 1"
     inkscape:groupmode="layer"
     id="layer1"
     transform="translate(-23.869952,-54.258203)"><g
       id="g8"
       transform="translate(95.188358,1.7670563)"><path
         id="path8"
         style="display:inline;opacity:1;fill:#c1c1c1;fill-opacity:1;stroke:none;stroke-width:2.64583;stroke-linecap:round;stroke-linejoin:round;stroke-dasharray:7.9375, 7.9375;stroke-dashoffset:0;stroke-opacity:1"
         d="m -25.757509,57.520536 c -11.942972,0.230572 -24.523081,3.419352 -31.734497,9.634037 -9.553244,8.232837 -7.44098,40.829767 0.663526,57.655397 5.934472,12.32046 24.870089,14.00153 43.526024,7.77575 2.100782,-0.70106 1.867828,-7.15864 -0.284737,-6.63784 -16.677081,4.03491 -26.873615,1.4563 -28.163655,-10.14666 -0.217292,-1.95438 37.427349,11.04252 48.0079218,-8.71368 C 12.240922,95.914409 10.568912,75.777676 2.1544819,65.637353 -2.5087663,60.017621 -13.814537,57.289964 -25.757509,57.520536 Z m -16.084806,13.634827 a 7.6440682,7.6440682 0 0 1 7.643978,7.644494 7.6440682,7.6440682 0 0 1 -7.643978,7.643978 7.6440682,7.6440682 0 0 1 -7.643978,-7.643978 7.6440682,7.6440682 0 0 1 7.643978,-7.644494 z" /><path
         style="baseline-shift:baseline;display:inline;overflow:visible;vector-effect:none;stroke-linecap:round;stroke-linejoin:round;stroke-dasharray:7.9375, 7.9375;enable-background:accumulate;stop-color:#000000;stop-opacity:1;opacity:1"
         d="m -24.679687,56.185547 a 1.322915,1.322915 0 0 0 -1.31836,1.328125 1.322915,1.322915 0 0 0 1.328125,1.316406 c 2.598221,-0.01062 5.194297,0.1196 7.765625,0.416016 a 1.322915,1.322915 0 0 0 1.464844,-1.164063 1.322915,1.322915 0 0 0 -1.162109,-1.464844 c -2.685804,-0.309612 -5.38523,-0.442645 -8.078125,-0.43164 z m -8.064454,0.472656 c -2.675981,0.303645 -5.340162,0.753157 -7.970703,1.369141 a 1.322915,1.322915 0 0 0 -0.986328,1.589843 1.322915,1.322915 0 0 0 1.589844,0.986329 c 2.521903,-0.590545 5.08454,-1.023486 7.666016,-1.316407 a 1.322915,1.322915 0 0 0 1.164062,-1.46289 1.322915,1.322915 0 0 0 -1.462891,-1.166016 z m 24.1367191,1.482422 a 1.322915,1.322915 0 0 0 -1.6308591,0.917969 1.322915,1.322915 0 0 0 0.9179685,1.630859 c 2.1661816,0.606575 4.2642427,1.385095 6.1914062,2.4375 0.2729603,0.150847 0.5337744,0.29747 0.7753907,0.447266 a 1.322915,1.322915 0 0 0 1.82031248,-0.425782 1.322915,1.322915 0 0 0 -0.42578126,-1.822265 C -1.2640542,61.137037 -1.5659134,60.968553 -1.8554687,60.808594 a 1.3230472,1.3230472 0 0 0 -0.00586,-0.0039 c -2.1538051,-1.176171 -4.4418227,-2.018819 -6.7460938,-2.664062 z m -39.8710941,2.283203 c -2.526715,1.00002 -4.999409,2.219617 -7.292968,3.763672 a 1.322915,1.322915 0 0 0 -0.357422,1.837891 1.322915,1.322915 0 0 0 1.835937,0.357421 c 2.098373,-1.412653 4.398606,-2.551954 6.789063,-3.498046 a 1.322915,1.322915 0 0 0 0.742187,-1.71875 1.322915,1.322915 0 0 0 -1.716797,-0.742188 z M 4.1699219,66.722656 A 1.322915,1.322915 0 0 0 3.1738281,66.904297 1.322915,1.322915 0 0 0 2.78125,68.732422 c 1.0664288,1.651646 1.9509085,3.435595 2.6894531,5.287109 0.2070047,0.519739 0.4022611,1.044834 0.5859375,1.574219 a 1.322915,1.322915 0 0 0 1.6835938,0.816406 1.322915,1.322915 0 0 0 0.8164062,-1.683594 C 8.3600163,74.15986 8.150051,73.597164 7.9277344,73.039062 7.1363332,71.055038 6.1789264,69.118656 5.0039062,67.298828 A 1.322915,1.322915 0 0 0 4.1699219,66.722656 Z m -64.9609379,3.021485 a 1.322915,1.322915 0 0 0 -0.771484,0.654296 c -0.174414,0.338765 -0.338895,0.680464 -0.492187,1.023438 a 1.3230472,1.3230472 0 0 0 0,0.002 c -0.986431,2.219315 -1.61617,4.543395 -2.06836,6.853516 a 1.322915,1.322915 0 0 0 1.044922,1.552734 1.322915,1.322915 0 0 0 1.552734,-1.044922 c 0.427441,-2.183683 1.011658,-4.31201 1.888672,-6.285156 0.135298,-0.302608 0.276474,-0.600625 0.425782,-0.890625 a 1.322915,1.322915 0 0 0 -0.570313,-1.78125 1.322915,1.322915 0 0 0 -1.009766,-0.08398 z M 9.0039063,81.548828 A 1.322915,1.322915 0 0 0 7.90625,83.0625 c 0.3800652,2.396432 0.577483,4.821382 0.5917969,7.248047 v 0.349609 0.09375 A 1.322915,1.322915 0 0 0 9.8125,92.083984 1.322915,1.322915 0 0 0 11.142578,90.767578 l 0.002,-0.09766 a 1.3230472,1.3230472 0 0 0 0,-0.0098 l -0.002,-0.359375 a 1.3230472,1.3230472 0 0 0 0,-0.0059 c -0.0151,-2.5601 -0.223928,-5.117598 -0.625,-7.646485 A 1.322915,1.322915 0 0 0 9.0039063,81.548828 Z m -72.6699223,3.539063 a 1.322915,1.322915 0 0 0 -1.386718,1.255859 c -0.133176,2.691777 -0.117443,5.384877 0.01172,8.064453 a 1.322915,1.322915 0 0 0 1.384766,1.257813 1.322915,1.322915 0 0 0 1.257813,-1.384766 c -0.125592,-2.60552 -0.140045,-5.212896 -0.01172,-7.806641 a 1.322915,1.322915 0 0 0 -1.25586,-1.386718 z M 9.3417969,97.353516 A 1.322915,1.322915 0 0 0 7.796875,98.408203 c -0.369841,1.959647 -0.8947937,3.879837 -1.6210938,5.707027 h 0.00195 C 5.9726571,104.6297 5.7527708,105.13368 5.515625,105.625 a 1.322915,1.322915 0 0 0 0.6171875,1.76563 1.322915,1.322915 0 0 0 1.765625,-0.61524 c 0.2677526,-0.55473 0.5113384,-1.11722 0.7363281,-1.68164 0.7998359,-2.01219 1.3658664,-4.09589 1.7617184,-6.193359 A 1.322915,1.322915 0 0 0 9.3417969,97.353516 Z m -72.5175779,3.582034 a 1.322915,1.322915 0 0 0 -1.140625,1.48437 c 0.349509,2.65774 0.804782,5.30281 1.373047,7.92578 a 1.322915,1.322915 0 0 0 1.574218,1.01368 1.322915,1.322915 0 0 0 1.011719,-1.57227 c -0.552171,-2.54869 -0.993572,-5.12433 -1.333984,-7.71289 a 1.322915,1.322915 0 0 0 -1.484375,-1.13867 z m 64.2363279,10.49804 c -1.25555426,1.05398 -2.6733936,1.93103 -4.1796875,2.63868 a 1.3230472,1.3230472 0 0 0 0,0.002 c -0.4144782,0.1949 -0.8362267,0.37625 -1.2636719,0.54687 l -0.4316406,0.16797 -0.4355469,0.16016 -0.1816406,0.0625 A 1.322915,1.322915 0 0 0 -6.25,116.69531 a 1.322915,1.322915 0 0 0 1.6835938,0.81641 l 0.1933593,-0.0664 a 1.3230472,1.3230472 0 0 0 0.021484,-0.008 l 0.4609375,-0.16797 a 1.3230472,1.3230472 0 0 0 0.021484,-0.01 l 0.4550781,-0.17579 a 1.3230472,1.3230472 0 0 0 0.011719,-0.006 c 0.473548,-0.18903 0.9447459,-0.39151 1.4082032,-0.60938 l 0.00195,-0.002 c 1.68946091,-0.79393 3.3028085,-1.78969 4.7539063,-3.00782 a 1.322915,1.322915 0 0 0 0.1621093,-1.86328 1.322915,1.322915 0 0 0 -1.8632812,-0.16211 z m -37.2519529,3.55469 a 1.322915,1.322915 0 0 0 -1.53125,1.07422 1.322915,1.322915 0 0 0 1.074219,1.53125 c 2.61491,0.45869 5.247177,0.89286 7.90625,1.22656 a 1.322915,1.322915 0 0 0 1.476562,-1.14843 1.322915,1.322915 0 0 0 -1.146484,-1.47657 c -2.591865,-0.32527 -5.182463,-0.75151 -7.779297,-1.20703 z m -23.820313,1.48633 a 1.322915,1.322915 0 0 0 -0.857422,1.66211 l 0.0332,0.10547 a 1.3230472,1.3230472 0 0 0 0.0039,0.01 l 0.152344,0.46875 a 1.3230472,1.3230472 0 0 0 0.002,0.006 c 0.78515,2.35928 1.693735,4.70078 2.808593,6.96289 a 1.322915,1.322915 0 0 0 1.771485,0.60157 1.322915,1.322915 0 0 0 0.601562,-1.77149 c -1.045542,-2.12146 -1.910639,-4.34606 -2.667968,-6.62109 l -0.002,-0.006 -0.15039,-0.46094 -0.0332,-0.10156 a 1.322915,1.322915 0 0 0 -1.66211,-0.85547 z m 47.126953,0.13281 c -2.555213,0.27361 -5.144858,0.32763 -7.740234,0.23828 a 1.322915,1.322915 0 0 0 -1.367187,1.27539 1.322915,1.322915 0 0 0 1.277343,1.36914 c 2.691554,0.0927 5.405885,0.038 8.113281,-0.25195 a 1.322915,1.322915 0 0 0 1.173829,-1.45508 1.322915,1.322915 0 0 0 -1.457032,-1.17578 z m -28.757812,0.32617 a 1.322915,1.322915 0 0 0 -0.962891,1.60352 c 0.37628,1.50513 0.969904,2.98827 1.847657,4.33203 0.745983,1.14588 1.686024,2.16097 2.77539,2.99024 a 1.322915,1.322915 0 0 0 1.853516,-0.25196 1.322915,1.322915 0 0 0 -0.25,-1.85351 c -0.845648,-0.64374 -1.583551,-1.43792 -2.164063,-2.33008 a 1.3230472,1.3230472 0 0 0 0,-0.002 c -0.687755,-1.0529 -1.179534,-2.25915 -1.496093,-3.5254 a 1.322915,1.322915 0 0 0 -1.603516,-0.96289 z m 28.414062,7.66407 c -0.241339,-0.0126 -0.466116,0.015 -0.669922,0.0644 l -0.501953,0.11914 a 1.322915,1.322915 0 0 0 -0.982422,1.5918 1.322915,1.322915 0 0 0 1.591797,0.98242 l 0.261719,-0.0625 c 0.113745,0.20083 0.215583,0.47219 0.283203,0.84765 0.113628,0.69045 0.104253,1.40673 -0.02734,2.09375 -1.22e-4,6.5e-4 1.23e-4,0.001 0,0.002 -0.08752,0.42586 -0.214184,0.77185 -0.36914,0.99609 -0.02516,0.0345 -0.04849,0.0621 -0.06055,0.0742 a 1.322915,1.322915 0 0 0 -0.0098,0.0234 1.322915,1.322915 0 0 0 -0.0078,0 c -2.466995,0.82283 -4.975405,1.51899 -7.511719,2.06836 a 1.322915,1.322915 0 0 0 -1.011719,1.57422 1.322915,1.322915 0 0 0 1.572266,1.01171 c 2.635575,-0.57087 5.234518,-1.29315 7.787109,-2.14453 a 1.322915,1.322915 0 0 0 0.333985,-0.66601 1.322915,1.322915 0 0 0 0.720703,0 c 0.143184,-0.14358 0.259555,-0.28874 0.357422,-0.42774 a 1.3230472,1.3230472 0 0 0 0.0078,-0.01 c 0.458668,-0.66376 0.661721,-1.36903 0.78711,-1.98828 a 1.3230472,1.3230472 0 0 0 0.0039,-0.0117 c 0.192163,-1.00141 0.204342,-2.0334 0.03711,-3.03906 a 1.3230472,1.3230472 0 0 0 -0.002,-0.0156 c -0.104456,-0.58493 -0.27618,-1.27195 -0.710937,-1.93359 a 1.3230472,1.3230472 0 0 0 -0.0059,-0.01 c -0.239342,-0.35677 -0.604293,-0.7715 -1.208984,-1 -0.212352,-0.0804 -0.433974,-0.12837 -0.660156,-0.14062 z m -8.822265,1.55078 -0.353516,0.0391 c -0.73077,0.0758 -1.46219,0.13425 -2.191406,0.17188 -1.708575,0.087 -3.406592,0.0638 -5.064453,-0.14258 a 1.322915,1.322915 0 0 0 -1.476563,1.15039 1.322915,1.322915 0 0 0 1.148438,1.47656 c 1.852513,0.23064 3.706145,0.25092 5.527344,0.1582 0.780128,-0.0402 1.557618,-0.10147 2.330078,-0.18164 a 1.3230472,1.3230472 0 0 0 0.0078,-0.002 l 0.363281,-0.0391 a 1.322915,1.322915 0 0 0 1.169922,-1.46094 1.322915,1.322915 0 0 0 -1.460937,-1.16992 z m -29.734375,3.65039 a 1.322915,1.322915 0 0 0 -0.873047,0.51367 1.322915,1.322915 0 0 0 0.261719,1.85352 c 0.504543,0.37977 1.024635,0.72971 1.552734,1.05664 a 1.3230472,1.3230472 0 0 0 0.002,0 c 1.865261,1.15213 3.877738,2.01403 5.9375,2.64453 a 1.322915,1.322915 0 0 0 1.652344,-0.87891 1.322915,1.322915 0 0 0 -0.876953,-1.65234 c -1.876886,-0.57452 -3.680911,-1.34945 -5.322266,-2.36328 -0.468654,-0.29013 -0.92134,-0.59658 -1.353515,-0.92188 a 1.322915,1.322915 0 0 0 -0.980469,-0.25195 z m 22.876953,4.7832 c -2.485496,0.21927 -4.978904,0.27362 -7.451172,0.11328 l -0.267578,-0.0195 a 1.322915,1.322915 0 0 0 -1.412109,1.22852 1.322915,1.322915 0 0 0 1.226562,1.41211 l 0.267578,0.0176 a 1.3230472,1.3230472 0 0 0 0.0059,0 c 2.628241,0.17094 5.259099,0.11255 7.863281,-0.11718 a 1.322915,1.322915 0 0 0 1.203125,-1.4336 1.322915,1.322915 0 0 0 -1.435547,-1.20117 z"
         id="path6" /><path
         id="path7"
         style="opacity:1;fill:none;stroke:#000000;stroke-width:2.64583;stroke-linecap:round;stroke-linejoin:round;stroke-dasharray:7.9375, 7.9375"
         d="m -34.198141,78.799683 a 7.6440682,7.6440682 0 0 1 -7.644068,7.644068 7.6440682,7.6440682 0 0 1 -7.644068,-7.644068 7.6440682,7.6440682 0 0 1 7.644068,-7.644069 7.6440682,7.6440682 0 0 1 7.644068,7.644069 z" /></g></g></svg>
