<?xml version="1.0" encoding="UTF-8" standalone="no"?>
<!-- Created with Inkscape (http://www.inkscape.org/) -->

<svg
   width="335"
   height="335"
   viewBox="0 0 88.635415 88.635416"
   version="1.1"
   id="svg1"
   sodipodi:docname="mastodon_icon.svg"
   inkscape:version="1.4.2 (f4327f4, 2025-05-13)"
   xml:space="preserve"
   xmlns:inkscape="http://www.inkscape.org/namespaces/inkscape"
   xmlns:sodipodi="http://sodipodi.sourceforge.net/DTD/sodipodi-0.dtd"
   xmlns="http://www.w3.org/2000/svg"
   xmlns:svg="http://www.w3.org/2000/svg"><sodipodi:namedview
     id="namedview1"
     pagecolor="#ffffff"
     bordercolor="#000000"
     borderopacity="0.25"
     inkscape:showpageshadow="2"
     inkscape:pageopacity="0.0"
     inkscape:pagecheckerboard="0"
     inkscape:deskcolor="#d1d1d1"
     inkscape:document-units="px"
     inkscape:zoom="0.49323378"
     inkscape:cx="-262.55298"
     inkscape:cy="436.9125"
     inkscape:window-width="1920"
     inkscape:window-height="1001"
     inkscape:window-x="-9"
     inkscape:window-y="-9"
     inkscape:window-maximized="1"
     inkscape:current-layer="layer1" /><defs
     id="defs1" /><g
     inkscape:label="Layer 1"
     inkscape:groupmode="layer"
     id="layer1"
     transform="translate(-23.869952,-54.258203)"><g
       id="g8"
       transform="translate(95.188358,1.7670563)"><path
         id="path8"
         style="display:inline;opacity:1;fill:#c1c1c1;fill-opacity:1;stroke:none;stroke-width:2.64583;stroke-linecap:round;stroke-linejoin:round;stroke-dasharray:7.9375, 7.9375;stroke-dashoffset:0;stroke-opacity:1"
         d="m -25.757509,57.520536 c -11.942972,0.230572 -24.523081,3.419352 -31.734497,9.634037 -9.553244,8.232837 -7.44098,40.829767 0.663526,57.655397 5.934472,12.32046 24.870089,14.00153 43.526024,7.77575 2.100782,-0.70106 1.867828,-7.15864 -0.284737,-6.63784 -16.677081,4.03491 -26.873615,1.4563 -28.163655,-10.14666 -0.217292,-1.95438 37.427349,11.04252 48.0079218,-8.71368 C 12.240922,95.914409 10.568912,75.777676 2.1544819,65.637353 -2.5087663,60.017621 -13.814537,57.289964 -25.757509,57.520536 Z m -16.084806,13.634827 a 7.6440682,7.6440682 0 0 1 7.643978,7.644494 7.6440682,7.6440682 0 0 1 -7.643978,7.643978 7.6440682,7.6440682 0 0 1 -7.643978,-7.643978 7.6440682,7.6440682 0 0 1 7.643978,-7.644494 z" /><path
         style="opacity:1;fill:none;fill-opacity:1;stroke:#000000;stroke-width:2.64583;stroke-linecap:round;stroke-linejoin:round;stroke-dasharray:7.9375, 7.9375;stroke-dashoffset:0;stroke-opacity:1"
         d="m -13.302461,132.58579 c -18.655935,6.22578 -37.591388,4.54459 -43.52586,-7.77587 -8.104506,-16.82563 -10.217038,-49.422329 -0.663794,-57.655166 14.422831,-12.429371 50.320054,-12.756705 59.6465505,-1.517241 8.4144305,10.140323 10.0864175,30.27687 4.1025691,41.449997 -10.5805728,19.7562 -48.2250326,6.75941 -48.0077406,8.71379 1.29004,11.60296 11.486712,14.18147 28.163793,10.14656 2.152565,-0.5208 2.385264,5.93687 0.284482,6.63793 z"
         id="path6"
         sodipodi:nodetypes="ssssssss" /><circle
         style="opacity:1;fill:none;fill-opacity:1;stroke:#000000;stroke-width:2.64583;stroke-linecap:round;stroke-linejoin:round;stroke-dasharray:7.9375, 7.9375;stroke-dashoffset:0;stroke-opacity:1"
         id="path7"
         cx="-41.842209"
         cy="78.799683"
         r="7.6440682" /></g></g></svg>
