<?xml version="1.0" encoding="UTF-8" standalone="no"?>
<!-- Created with Inkscape (http://www.inkscape.org/) -->

<svg
   width="335"
   height="335"
   viewBox="0 0 88.635415 88.635416"
   version="1.1"
   id="svg1"
   sodipodi:docname="telegram_icon_shape.svg"
   inkscape:version="1.4.2 (f4327f4, 2025-05-13)"
   xml:space="preserve"
   xmlns:inkscape="http://www.inkscape.org/namespaces/inkscape"
   xmlns:sodipodi="http://sodipodi.sourceforge.net/DTD/sodipodi-0.dtd"
   xmlns="http://www.w3.org/2000/svg"
   xmlns:svg="http://www.w3.org/2000/svg"><sodipodi:namedview
     id="namedview1"
     pagecolor="#ffffff"
     bordercolor="#000000"
     borderopacity="0.25"
     inkscape:showpageshadow="2"
     inkscape:pageopacity="0.0"
     inkscape:pagecheckerboard="0"
     inkscape:deskcolor="#d1d1d1"
     inkscape:document-units="px"
     inkscape:zoom="1.3950758"
     inkscape:cx="143.00298"
     inkscape:cy="184.57779"
     inkscape:window-width="1920"
     inkscape:window-height="1001"
     inkscape:window-x="-9"
     inkscape:window-y="-9"
     inkscape:window-maximized="1"
     inkscape:current-layer="layer1" /><defs
     id="defs1" /><g
     inkscape:label="Layer 1"
     inkscape:groupmode="layer"
     id="layer1"
     transform="translate(-23.869952,-54.258203)"><g
       id="g5"
       transform="matrix(1.6038876,0,0,1.6038876,153.44119,-48.03285)"><path
         style="fill:#c1c1c1;fill-opacity:1;stroke:none;stroke-width:2.64583;stroke-linecap:round;stroke-linejoin:round;stroke-dasharray:7.9375, 7.9375;stroke-opacity:1"
         d="m -75.035218,90.463598 c 10.996194,-5.977927 37.964942,-19.843968 42.767242,-17.903672 4.213287,1.702314 -0.392559,28.832774 -4.646552,37.931034 -1.405069,3.0051 -21.081401,-11.164501 -18.28348,-14.290373 7.528255,-8.410658 13.222295,-14.014887 13.16279,-13.968248 0,0 -16.208335,13.389137 -21.14655,13.086207 -2.527018,-0.155018 -15.604685,-2.815642 -11.85345,-4.854948 z"
         id="path5"
         sodipodi:nodetypes="sssscss" /><path
         style="baseline-shift:baseline;display:inline;overflow:visible;vector-effect:none;stroke-linecap:round;stroke-linejoin:round;stroke-dasharray:4.94892, 4.94892;enable-background:accumulate;stop-color:#000000;stop-opacity:1;opacity:1"
         d="m -34.542969,71.623047 c -0.298016,0.03512 -0.58669,0.08129 -0.86914,0.132812 a 0.82490246,0.82490246 0 0 0 -0.0039,0 c -1.037333,0.192228 -2.043371,0.465577 -3.02539,0.761719 a 0.82490246,0.82490246 0 0 0 -0.0059,0.002 l -0.603515,0.1875 a 0.82490246,0.82490246 0 0 0 -0.01172,0.0039 l -0.433594,0.140625 a 0.82481998,0.82481998 0 0 0 -0.529297,1.041016 0.82481998,0.82481998 0 0 0 1.039063,0.529297 l 0.429687,-0.140625 0.591797,-0.183594 0.0078,-0.002 c 0.948444,-0.285851 1.893252,-0.541282 2.839844,-0.716797 0.261011,-0.04761 0.516871,-0.08764 0.767578,-0.117187 a 0.82481998,0.82481998 0 0 0 0.722656,-0.916016 0.82481998,0.82481998 0 0 0 -0.916016,-0.722656 z m 3.425782,2.427734 a 0.82481998,0.82481998 0 0 0 -0.634766,0.978516 c 0.181645,0.851387 0.258452,1.744262 0.298828,2.660156 l 0.0098,0.259766 0.01367,0.546875 0.0039,0.566406 -0.0059,0.585937 -0.0039,0.115235 a 0.82481998,0.82481998 0 0 0 0.806641,0.845703 0.82481998,0.82481998 0 0 0 0.84375,-0.806641 l 0.002,-0.121093 a 0.82490246,0.82490246 0 0 0 0,-0.01172 l 0.0059,-0.59961 a 0.82490246,0.82490246 0 0 0 0,-0.01172 l -0.0039,-0.580078 a 0.82490246,0.82490246 0 0 0 0,-0.01367 l -0.01172,-0.558594 a 0.82490246,0.82490246 0 0 0 -0.002,-0.01172 l -0.0098,-0.271484 a 0.82490246,0.82490246 0 0 0 0,-0.0059 c -0.04231,-0.959675 -0.123295,-1.946074 -0.333985,-2.933593 a 0.82481998,0.82481998 0 0 0 -0.978515,-0.632813 z m -13.074219,0.525391 -0.376953,0.15039 a 0.82490246,0.82490246 0 0 0 -0.0039,0 C -45.98557,75.295741 -47.387993,75.889018 -48.78125,76.5 a 0.82481998,0.82481998 0 0 0 -0.423828,1.087891 0.82481998,0.82481998 0 0 0 1.085937,0.423828 c 1.380003,-0.60517 2.768365,-1.191818 4.164063,-1.753907 h -0.0039 l 0.378906,-0.15039 a 0.82481998,0.82481998 0 0 0 0.460937,-1.070313 0.82481998,0.82481998 0 0 0 -1.072265,-0.460937 z m -9.115235,3.96875 c -1.500517,0.696802 -2.996001,1.40562 -4.484375,2.126953 a 0.82481998,0.82481998 0 0 0 -0.382812,1.101562 0.82481998,0.82481998 0 0 0 1.103516,0.382813 c 1.480594,-0.717563 2.965177,-1.422455 4.457031,-2.115234 a 0.82481998,0.82481998 0 0 0 0.402344,-1.095704 0.82481998,0.82481998 0 0 0 -1.095704,-0.40039 z m 10.748047,3.050781 c -0.499951,0.411363 -1.008559,0.816856 -1.519531,1.224609 -0.388894,0.308665 -0.774553,0.61625 -1.162109,0.917969 a 0.82481998,0.82481998 0 0 0 -0.144532,1.158203 0.82481998,0.82481998 0 0 0 1.158204,0.142578 c 0.396258,-0.308494 0.786638,-0.618872 1.175781,-0.927734 a 0.82490246,0.82490246 0 0 0 0.002,0 c 0.09832,-0.07846 0.196505,-0.159569 0.294922,-0.238281 a 0.82481998,0.82481998 0 0 0 0.253906,-0.002 c 0.345813,-0.351174 0.697788,-0.701484 1.050781,-1.058594 a 0.82490246,0.82490246 0 0 0 -1.109375,-1.216797 z m -19.050781,1.222656 a 0.82481998,0.82481998 0 0 0 -0.630859,0.04492 l -0.945313,0.47461 a 0.82490246,0.82490246 0 0 0 -0.002,0.002 l -1.574219,0.794922 a 0.82490246,0.82490246 0 0 0 -0.002,0.002 l -1.537109,0.785156 a 0.82490246,0.82490246 0 0 0 -0.002,0.002 l -0.359375,0.183594 a 0.82481998,0.82481998 0 0 0 -0.353516,1.111328 0.82481998,0.82481998 0 0 0 1.109375,0.355469 l 0.357422,-0.183594 1.533203,-0.783203 L -62.445312,84.8125 -61.5,84.339844 a 0.82481998,0.82481998 0 0 0 0.367188,-1.107422 0.82481998,0.82481998 0 0 0 -0.476563,-0.414063 z m 30.765625,1.082032 a 0.82481998,0.82481998 0 0 0 -0.902344,0.740234 l -0.0293,0.302734 -0.07813,0.720703 -0.08594,0.734375 c -0.08946,0.746218 -0.187051,1.493412 -0.292969,2.238282 l -0.111328,0.757812 -0.01563,0.111328 a 0.82481998,0.82481998 0 0 0 0.689453,0.941407 0.82481998,0.82481998 0 0 0 0.939453,-0.691407 l 0.01758,-0.115234 a 0.82490246,0.82490246 0 0 0 0.002,-0.0039 l 0.111328,-0.765625 a 0.82490246,0.82490246 0 0 0 0,-0.0039 c 0.107687,-0.757313 0.207712,-1.515088 0.298828,-2.27539 a 0.82490246,0.82490246 0 0 0 0,-0.0039 l 0.08594,-0.736329 a 0.82490246,0.82490246 0 0 0 0,-0.0078 l 0.08008,-0.726563 a 0.82490246,0.82490246 0 0 0 0,-0.0078 l 0.0293,-0.306641 a 0.82481998,0.82481998 0 0 0 -0.738281,-0.902343 z m -15.708984,2.117187 a 0.82481998,0.82481998 0 0 0 -0.578125,0.253906 l -0.16211,0.167969 a 0.82490246,0.82490246 0 0 0 -0.0039,0.0039 l -0.65625,0.6875 a 0.82481998,0.82481998 0 0 0 -0.05859,-0.238281 0.82481998,0.82481998 0 0 0 -1.152343,-0.173828 l -0.365235,0.267578 -0.841797,0.613281 -0.863281,0.617188 -0.878906,0.617187 c -0.353914,0.245605 -0.705503,0.488528 -1.058594,0.726563 a 0.82481998,0.82481998 0 0 0 -0.224609,1.144531 0.82481998,0.82481998 0 0 0 1.146484,0.222656 c 0.364897,-0.245993 0.724608,-0.494138 1.082031,-0.742187 a 0.82490246,0.82490246 0 0 0 0.0039,-0.002 l 0.880859,-0.619141 a 0.82490246,0.82490246 0 0 0 0.0059,-0.0039 l 0.105469,-0.07617 -0.365234,0.390625 a 0.82481998,0.82481998 0 0 0 0.03906,1.166016 0.82481998,0.82481998 0 0 0 1.166016,-0.03711 l 1.134765,-1.214844 1.085938,-1.148437 1.009766,-1.058594 0.160156,-0.167969 a 0.82481998,0.82481998 0 0 0 -0.02344,-1.166015 0.82481998,0.82481998 0 0 0 -0.58789,-0.230469 z m -24.503907,1.380859 c -1.462462,0.770888 -2.920572,1.550726 -4.373046,2.339844 -0.13086,0.07125 -0.269572,0.15636 -0.408204,0.261719 a 0.82490246,0.82490246 0 0 0 -0.002,0.002 c -0.193125,0.148077 -0.446056,0.367639 -0.595703,0.742188 a 0.82490246,0.82490246 0 0 0 0,0.002 c -0.08019,0.20168 -0.113786,0.420982 -0.08789,0.648437 0.04273,0.378541 0.219809,0.647141 0.373046,0.833985 a 0.82481998,0.82481998 0 0 0 1.160157,0.113281 0.82481998,0.82481998 0 0 0 0.09766,-0.992188 c -0.0084,0.01987 -0.0047,0.0092 0.05273,-0.03711 l 0.0039,-0.002 c 0.05192,-0.03915 0.117116,-0.08047 0.195312,-0.123047 1.446577,-0.785914 2.89735,-1.56251 4.353516,-2.330078 a 0.82481998,0.82481998 0 0 0 0.345703,-1.113281 0.82481998,0.82481998 0 0 0 -1.115235,-0.345704 z m 13.748047,4.78125 -0.05859,0.03516 c -0.406293,0.234534 -0.814967,0.461018 -1.226563,0.679687 l -0.394531,0.207031 -0.384766,0.19336 -0.376953,0.183594 -0.365234,0.167968 -0.353516,0.15625 -0.341797,0.140625 -0.339844,0.128907 c -0.151171,0.05548 -0.30111,0.108714 -0.451171,0.15625 a 0.82481998,0.82481998 0 0 0 -0.53711,1.035156 0.82481998,0.82481998 0 0 0 1.035156,0.537109 c 0.181001,-0.05734 0.358582,-0.119337 0.533204,-0.183594 a 0.82490246,0.82490246 0 0 0 0.0098,-0.0039 l 0.34961,-0.134765 a 0.82490246,0.82490246 0 0 0 0.01953,-0.0059 l 0.359375,-0.148437 a 0.82490246,0.82490246 0 0 0 0.01758,-0.0078 l 0.369141,-0.162109 a 0.82490246,0.82490246 0 0 0 0.01563,-0.0059 l 0.378906,-0.175781 a 0.82490246,0.82490246 0 0 0 0.01367,-0.0059 l 0.388672,-0.189453 a 0.82490246,0.82490246 0 0 0 0.01172,-0.0059 l 0.396485,-0.199218 a 0.82490246,0.82490246 0 0 0 0.01172,-0.0059 l 0.404297,-0.210937 a 0.82490246,0.82490246 0 0 0 0.0059,-0.0039 c 0.4322,-0.229615 0.858124,-0.465828 1.279297,-0.708984 a 0.82490246,0.82490246 0 0 0 0.0039,-0.0039 l 0.05859,-0.03516 a 0.82481998,0.82481998 0 0 0 0.296875,-1.126954 0.82481998,0.82481998 0 0 0 -1.128907,-0.296875 z m -13.507812,0.748047 a 0.82481998,0.82481998 0 0 0 -1.021485,0.564453 0.82481998,0.82481998 0 0 0 0.564454,1.021485 l 0.175781,0.05078 a 0.82490246,0.82490246 0 0 0 0.0078,0.002 l 0.605469,0.166016 a 0.82490246,0.82490246 0 0 0 0.01172,0.0039 l 0.615234,0.160156 a 0.82490246,0.82490246 0 0 0 0.0098,0.002 l 0.617187,0.154297 a 0.82490246,0.82490246 0 0 0 0.0098,0.002 l 0.615234,0.146485 a 0.82490246,0.82490246 0 0 0 0.0078,0.002 l 0.609375,0.136719 a 0.82490246,0.82490246 0 0 0 0.0059,0 c 0.52923,0.115797 1.061111,0.226458 1.597656,0.328125 a 0.82481998,0.82481998 0 0 0 0.964844,-0.65625 0.82481998,0.82481998 0 0 0 -0.658203,-0.962891 c -0.515084,-0.0976 -1.030549,-0.205428 -1.546875,-0.318359 l -0.0059,-0.002 -0.59961,-0.134766 -0.607422,-0.142578 -0.607421,-0.152344 -0.605469,-0.158203 -0.595703,-0.164063 z m 18.083984,0.542969 a 0.82481998,0.82481998 0 0 0 -1.164062,0.05664 l -0.523438,0.576172 a 0.82490246,0.82490246 0 0 0 -0.002,0.002 l -0.6875,0.761718 a 0.82490246,0.82490246 0 0 0 -0.162109,0.265625 c 0.007,-0.01898 -0.01443,0.02952 -0.154297,0.152344 -0.139869,0.122825 -0.385893,0.298404 -0.59375,0.644531 a 0.82490246,0.82490246 0 0 0 -0.01758,0.0293 l -0.04492,0.08398 a 0.82490246,0.82490246 0 0 0 -0.0332,0.06836 l -0.03711,0.08789 a 0.82490246,0.82490246 0 0 0 -0.02734,0.06836 l -0.0293,0.0918 a 0.82490246,0.82490246 0 0 0 -0.01953,0.06836 l -0.02148,0.09375 a 0.82490246,0.82490246 0 0 0 -0.01367,0.06641 l -0.01367,0.09961 a 0.82490246,0.82490246 0 0 0 -0.0078,0.0625 l -0.0059,0.101562 a 0.82490246,0.82490246 0 0 0 -0.0039,0.05859 l 0.002,0.105469 a 0.82490246,0.82490246 0 0 0 0.002,0.05469 l 0.0059,0.107422 a 0.82490246,0.82490246 0 0 0 0.0059,0.05078 l 0.01367,0.111328 a 0.82490246,0.82490246 0 0 0 0.0078,0.04492 l 0.02148,0.113281 a 0.82490246,0.82490246 0 0 0 0.0078,0.04297 l 0.0293,0.117187 a 0.82490246,0.82490246 0 0 0 0.0039,0.02148 c 0.08383,0.312594 0.203613,0.59868 0.335937,0.861329 a 0.82481998,0.82481998 0 0 0 1.109375,0.365234 0.82481998,0.82481998 0 0 0 0.365234,-1.107422 c -0.09396,-0.186504 -0.167789,-0.368874 -0.214843,-0.542969 -3.51e-4,-0.0013 -0.0016,-0.0026 -0.002,-0.0039 l -0.01758,-0.07617 -0.01367,-0.07031 -0.0078,-0.06445 -0.0039,-0.05664 V 96.9375 l 0.0039,-0.03906 0.0039,-0.0332 0.0059,-0.02734 0.0078,-0.01953 0.0078,-0.01758 0.0098,-0.02148 0.002,-0.002 c 0.0071,-0.01096 0.09176,-0.09951 0.267579,-0.253907 0.177135,-0.15555 0.455814,-0.397515 0.611328,-0.816406 l -0.160157,0.265625 0.6875,-0.761719 0.521485,-0.576171 a 0.82481998,0.82481998 0 0 0 -0.05664,-1.164063 z m 20.50586,0.226563 a 0.82481998,0.82481998 0 0 0 -0.964844,0.65625 c -0.269452,1.411352 -0.564621,2.819037 -0.884766,4.220703 l -0.136719,0.58789 a 0.82481998,0.82481998 0 0 0 0.615235,0.990231 0.82481998,0.82481998 0 0 0 0.990234,-0.617184 l 0.138672,-0.591797 a 0.82490246,0.82490246 0 0 0 0,-0.002 c 0.324335,-1.420012 0.625109,-2.845686 0.898438,-4.277344 a 0.82481998,0.82481998 0 0 0 -0.65625,-0.966796 z m -19.199219,7.685544 a 0.82481998,0.82481998 0 0 0 -1.166016,0.0254 0.82481998,0.82481998 0 0 0 0.02539,1.16602 l 0.224609,0.21484 a 0.82490246,0.82490246 0 0 0 0.0098,0.008 l 0.373047,0.34765 a 0.82490246,0.82490246 0 0 0 0.0078,0.008 l 0.384766,0.34766 a 0.82490246,0.82490246 0 0 0 0.0078,0.006 l 0.394532,0.34961 a 0.82490246,0.82490246 0 0 0 0.0078,0.006 l 0.40625,0.34961 a 0.82490246,0.82490246 0 0 0 0.0059,0.006 l 0.414063,0.34961 a 0.82490246,0.82490246 0 0 0 0.0078,0.006 l 0.419922,0.3457 a 0.82490246,0.82490246 0 0 0 0.0039,0.004 c 0.382203,0.31086 0.769677,0.61969 1.164062,0.92187 a 0.82481998,0.82481998 0 0 0 1.15625,-0.1543 0.82481998,0.82481998 0 0 0 -0.152344,-1.15625 c -0.377277,-0.28907 -0.751089,-0.58618 -1.123047,-0.88867 l -0.0039,-0.002 -0.414062,-0.3418 -0.40625,-0.3418 -0.398438,-0.34375 -0.386719,-0.34179 -0.376953,-0.3418 -0.365234,-0.33984 z m 17,1.96289 a 0.82481998,0.82481998 0 0 0 -1.021485,0.56446 l -0.08008,0.27929 -0.191406,0.64258 -0.193359,0.625 -0.19336,0.60742 -0.193359,0.58789 -0.195313,0.56641 -0.195312,0.54688 -0.195313,0.52539 -0.0957,0.24218 a 0.82481998,0.82481998 0 0 0 0.46875,1.06836 0.82481998,0.82481998 0 0 0 1.06836,-0.46875 l 0.09766,-0.24804 a 0.82490246,0.82490246 0 0 0 0.0039,-0.0117 l 0.199219,-0.53516 a 0.82490246,0.82490246 0 0 0 0.0039,-0.0117 l 0.199219,-0.55664 a 0.82490246,0.82490246 0 0 0 0.0039,-0.01 l 0.197266,-0.57618 a 0.82490246,0.82490246 0 0 0 0.0039,-0.01 l 0.197266,-0.5957 a 0.82490246,0.82490246 0 0 0 0.002,-0.008 l 0.197265,-0.61523 a 0.82490246,0.82490246 0 0 0 0.002,-0.008 l 0.195312,-0.63282 a 0.82490246,0.82490246 0 0 0 0.002,-0.008 l 0.19336,-0.64844 a 0.82490246,0.82490246 0 0 0 0.002,-0.008 l 0.08203,-0.2832 a 0.82481998,0.82481998 0 0 0 -0.564453,-1.02149 z m -9.935547,3.88086 a 0.82481998,0.82481998 0 0 0 -0.517578,0.36133 0.82481998,0.82481998 0 0 0 0.251953,1.13867 l 0.128906,0.084 a 0.82490246,0.82490246 0 0 0 0.0078,0.004 l 0.4375,0.27149 a 0.82490246,0.82490246 0 0 0 0.0078,0.006 l 0.431641,0.26172 a 0.82490246,0.82490246 0 0 0 0.0098,0.006 l 0.425782,0.25 a 0.82490246,0.82490246 0 0 0 0.0078,0.006 l 0.419922,0.23829 a 0.82490246,0.82490246 0 0 0 0.0098,0.006 l 0.410156,0.22656 a 0.82490246,0.82490246 0 0 0 0.01172,0.006 l 0.40039,0.21484 a 0.82490246,0.82490246 0 0 0 0.01172,0.006 l 0.392578,0.20117 a 0.82490246,0.82490246 0 0 0 0.01367,0.006 l 0.378906,0.1875 a 0.82490246,0.82490246 0 0 0 0.01563,0.006 l 0.369141,0.17188 a 0.82490246,0.82490246 0 0 0 0.01563,0.008 l 0.357422,0.15625 a 0.82490246,0.82490246 0 0 0 0.01758,0.008 l 0.201172,0.082 a 0.82481998,0.82481998 0 0 0 1.076172,-0.45117 0.82481998,0.82481998 0 0 0 -0.451172,-1.07617 l -0.191406,-0.0781 -0.337891,-0.14843 -0.353516,-0.16407 -0.367187,-0.17968 -0.376953,-0.19336 -0.390625,-0.20703 -0.400391,-0.22266 -0.408203,-0.23242 -0.416016,-0.2461 -0.423828,-0.25586 -0.429687,-0.26757 -0.125,-0.0801 a 0.82481998,0.82481998 0 0 0 -0.621094,-0.10938 z"
         id="path4" /></g></g></svg>
