<?xml version="1.0" encoding="UTF-8" standalone="no"?>
<!-- Created with Inkscape (http://www.inkscape.org/) -->

<svg
   width="335"
   height="335"
   viewBox="0 0 88.635415 88.635416"
   version="1.1"
   id="svg1"
   sodipodi:docname="telegram_icon.svg"
   inkscape:version="1.4.2 (f4327f4, 2025-05-13)"
   xml:space="preserve"
   xmlns:inkscape="http://www.inkscape.org/namespaces/inkscape"
   xmlns:sodipodi="http://sodipodi.sourceforge.net/DTD/sodipodi-0.dtd"
   xmlns="http://www.w3.org/2000/svg"
   xmlns:svg="http://www.w3.org/2000/svg"><sodipodi:namedview
     id="namedview1"
     pagecolor="#ffffff"
     bordercolor="#000000"
     borderopacity="0.25"
     inkscape:showpageshadow="2"
     inkscape:pageopacity="0.0"
     inkscape:pagecheckerboard="0"
     inkscape:deskcolor="#d1d1d1"
     inkscape:document-units="px"
     inkscape:zoom="1.9729351"
     inkscape:cx="115.31043"
     inkscape:cy="149.26999"
     inkscape:window-width="1920"
     inkscape:window-height="1001"
     inkscape:window-x="-9"
     inkscape:window-y="-9"
     inkscape:window-maximized="1"
     inkscape:current-layer="layer1" /><defs
     id="defs1" /><g
     inkscape:label="Layer 1"
     inkscape:groupmode="layer"
     id="layer1"
     transform="translate(-23.869952,-54.258203)"><g
       id="g5"
       transform="matrix(1.6038876,0,0,1.6038876,153.44119,-48.03285)"><path
         style="fill:#c1c1c1;fill-opacity:1;stroke:none;stroke-width:2.64583;stroke-linecap:round;stroke-linejoin:round;stroke-dasharray:7.9375, 7.9375;stroke-opacity:1"
         d="m -75.035218,90.463598 c 10.996194,-5.977927 37.964942,-19.843968 42.767242,-17.903672 4.213287,1.702314 -0.392559,28.832774 -4.646552,37.931034 -1.405069,3.0051 -21.081401,-11.164501 -18.28348,-14.290373 7.528255,-8.410658 13.222295,-14.014887 13.16279,-13.968248 0,0 -16.208335,13.389137 -21.14655,13.086207 -2.527018,-0.155018 -15.604685,-2.815642 -11.85345,-4.854948 z"
         id="path5"
         sodipodi:nodetypes="sssscss" /><path
         style="fill:none;stroke:#000000;stroke-width:1.64964;stroke-linecap:round;stroke-linejoin:round;stroke-dasharray:4.94892, 4.94892;stroke-dashoffset:0;stroke-opacity:1"
         d="m -75.035218,90.463598 c 10.996194,-5.977927 37.964942,-19.843968 42.767242,-17.903672 4.213287,1.702314 -0.392559,28.832774 -4.646552,37.931034 -1.405069,3.0051 -21.081401,-11.164501 -18.28348,-14.290373 7.528255,-8.410658 13.222295,-14.014887 13.16279,-13.968248 0,0 -16.208335,13.389137 -21.14655,13.086207 -2.527018,-0.155018 -15.604685,-2.815642 -11.85345,-4.854948 z"
         id="path4"
         sodipodi:nodetypes="sssscss" /></g></g></svg>
